<?xml version="1.0" encoding="UTF-8"?>
<svg width="2051px" height="1307px" viewBox="0 0 2051 1307" version="1.1" xmlns="http://www.w3.org/2000/svg" xmlns:xlink="http://www.w3.org/1999/xlink">
    <!-- Generator: Sketch 50.2 (55047) - http://www.bohemiancoding.com/sketch -->
    <title>Group</title>
    <desc>Created with Sketch.</desc>
    <defs></defs>
    <g id="🚀-Launch-Signup-Page" stroke="none" stroke-width="1" fill="none" fill-rule="evenodd" opacity="0.1">
        <g id="Artboard-1" transform="translate(-37.000000, -54.000000)">
            <g id="Group" transform="translate(1055.996268, 682.198763) rotate(5.000000) translate(-1055.996268, -682.198763) translate(27.996268, 52.198763)">
                <path d="M727.4761,605.4664 C687.3091,605.4664 654.7491,572.9054 654.7491,532.7394 C654.7491,492.5734 687.3091,460.0124 727.4761,460.0124 C767.6421,460.0124 800.2031,492.5734 800.2031,532.7394 C800.2031,572.9054 767.6421,605.4664 727.4761,605.4664 M727.4761,350.2364 C626.6821,350.2364 544.9721,431.9454 544.9721,532.7394 C544.9721,633.5334 626.6821,715.2424 727.4761,715.2424 C828.2691,715.2424 909.9791,633.5334 909.9791,532.7394 C909.9791,431.9454 828.2691,350.2364 727.4761,350.2364" id="Fill-1" fill="#D9D9D9"></path>
                <path d="M1668.2173,256.2262 C1628.0513,256.2262 1595.4903,223.6652 1595.4903,183.4992 C1595.4903,143.3332 1628.0513,110.7722 1668.2173,110.7722 C1708.3833,110.7722 1740.9443,143.3332 1740.9443,183.4992 C1740.9443,223.6652 1708.3833,256.2262 1668.2173,256.2262 M1668.2173,0.9962 C1567.4233,0.9962 1485.7133,82.7052 1485.7133,183.4992 C1485.7133,284.2932 1567.4233,366.0022 1668.2173,366.0022 C1769.0113,366.0022 1850.7203,284.2932 1850.7203,183.4992 C1850.7203,82.7052 1769.0113,0.9962 1668.2173,0.9962" id="Fill-3" fill="#D6D6D6"></path>
                <path d="M241.5308,1130.3219 C201.3648,1130.3219 168.8038,1097.7609 168.8038,1057.5949 C168.8038,1017.4289 201.3648,984.8679 241.5308,984.8679 C281.6968,984.8679 314.2578,1017.4289 314.2578,1057.5949 C314.2578,1097.7609 281.6968,1130.3219 241.5308,1130.3219 M241.5308,875.0919 C140.7368,875.0919 59.0278,956.8009 59.0278,1057.5949 C59.0278,1158.3889 140.7368,1240.0989 241.5308,1240.0989 C342.3248,1240.0989 424.0338,1158.3889 424.0338,1057.5949 C424.0338,956.8009 342.3248,875.0919 241.5308,875.0919" id="Fill-5" fill="#A6A6A6"></path>
                <path d="M1334.4531,890.9528 C1294.2871,890.9528 1261.7261,858.3918 1261.7261,818.2258 C1261.7261,778.0598 1294.2871,745.4988 1334.4531,745.4988 C1374.6191,745.4988 1407.1801,778.0598 1407.1801,818.2258 C1407.1801,858.3918 1374.6191,890.9528 1334.4531,890.9528 M1334.4531,635.7218 C1233.6591,635.7218 1151.9501,717.4318 1151.9501,818.2258 C1151.9501,919.0198 1233.6591,1000.7288 1334.4531,1000.7288 C1435.2471,1000.7288 1516.9561,919.0198 1516.9561,818.2258 C1516.9561,717.4318 1435.2471,635.7218 1334.4531,635.7218" id="Fill-7" fill="#E5E5E5"></path>
                <polygon id="Fill-9" fill="#747474" points="681.3608 199.3776 526.1128 44.1296 370.8658 199.3776 526.1128 354.6256"></polygon>
                <polygon id="Fill-11" fill="#A6A6A6" points="1291.1426 1015.401 1077.5446 964.613 1026.7566 1178.211 1240.3546 1228.999"></polygon>
                <polygon id="Fill-13" fill="#6D6D6D" points="1189.8535 343.4786 1062.5625 102.6236 881.5975 306.2546"></polygon>
                <polygon id="Fill-15" fill="#ECECEC" points="1829.1733 988.4103 1563.3993 928.5903 1600.5223 1198.4723"></polygon>
                <polygon id="Fill-17" fill="#ECECEC" points="1651.9331 639.9122 1551.7171 386.5922 1349.5891 569.2352"></polygon>
                <polygon id="Fill-19" fill="#ECECEC" points="99.0674 872.5646 370.0984 845.0576 249.3444 600.8586"></polygon>
                <polygon id="Fill-21" fill="#E5E5E5" points="1000.9224 975.5675 1025.5304 704.2585 762.8064 776.2995"></polygon>
                <polygon id="Fill-23" fill="#707070" points="1370.7178 451.9313 1485.4568 204.8503 1213.8348 183.9853"></polygon>
                <polygon id="Fill-25" fill="#707070" points="352.8037 267.798 112.9217 138.683 76.0707 408.602"></polygon>
                <polygon id="Fill-27" fill="#707070" points="2030.9287 1008.652 2055.5367 737.343 1792.8127 809.384"></polygon>
                <polygon id="Fill-29" fill="#747474" points="913.4116 939.3087 707.9836 1016.7857 785.4606 1222.2137 990.8896 1144.7367"></polygon>
                <polygon id="Fill-31" fill="#A6A6A6" points="1272.1772 526.4342 1111.2182 377.1172 961.9002 538.0772 1122.8602 687.3932"></polygon>
                <polygon id="Fill-33" fill="#D6D6D6" points="707.6436 736.6315 469.9346 664.6485 397.9516 902.3585 635.6606 974.3405"></polygon>
                <polygon id="Fill-35" fill="#949494" points="537.7837 417.6866 331.0037 343.8916 257.2087 550.6706 463.9877 624.4666"></polygon>
                <polygon id="Fill-37" fill="#949494" points="2026.2119 539.9259 1836.0729 430.1489 1726.2959 620.2879 1916.4349 730.0649"></polygon>
                <path d="M673,1101.13 C673,1042.036 625.094,994.13 566,994.13 C506.906,994.13 459,1042.036 459,1101.13 C459,1160.224 506.906,1208.13 566,1208.13 C625.094,1208.13 673,1160.224 673,1101.13" id="Fill-39" fill="#E6E6E6"></path>
                <path d="M214,557.13 C214,498.036 166.094,450.13 107,450.13 C47.906,450.13 0,498.036 0,557.13 C0,616.224 47.906,664.13 107,664.13 C166.094,664.13 214,616.224 214,557.13" id="Fill-41" fill="#E6E6E6"></path>
                <path d="M2039,354.13 C2039,295.036 1991.094,247.13 1932,247.13 C1872.906,247.13 1825,295.036 1825,354.13 C1825,413.224 1872.906,461.13 1932,461.13 C1991.094,461.13 2039,413.224 2039,354.13" id="Fill-43" fill="#E6E6E6"></path>
                <path d="M1755,784.13 C1755,725.036 1707.094,677.13 1648,677.13 C1588.906,677.13 1541,725.036 1541,784.13 C1541,843.224 1588.906,891.13 1648,891.13 C1707.094,891.13 1755,843.224 1755,784.13" id="Fill-45" fill="#747474"></path>
                <path d="M1969,1130.13 C1969,1071.036 1921.094,1023.13 1862,1023.13 C1802.906,1023.13 1755,1071.036 1755,1130.13 C1755,1189.224 1802.906,1237.13 1862,1237.13 C1921.094,1237.13 1969,1189.224 1969,1130.13" id="Fill-47" fill="#6D6D6D"></path>
                <path d="M1546,1152.13 C1546,1093.036 1498.094,1045.13 1439,1045.13 C1379.906,1045.13 1332,1093.036 1332,1152.13 C1332,1211.224 1379.906,1259.13 1439,1259.13 C1498.094,1259.13 1546,1211.224 1546,1152.13" id="Fill-49" fill="#707070"></path>
                <path d="M922,139.13 C922,80.036 874.094,32.13 815,32.13 C755.906,32.13 708,80.036 708,139.13 C708,198.224 755.906,246.13 815,246.13 C874.094,246.13 922,198.224 922,139.13" id="Fill-51" fill="#D9D9D9"></path>
            </g>
        </g>
    </g>
</svg>