<svg width="743" height="158" xmlns="http://www.w3.org/2000/svg" xmlns:xlink="http://www.w3.org/1999/xlink"><defs><path d="M62.467 53.522c38.851 0 70.339 28.965 70.339 64.791 0 30.745-28.187 52.342-68.562 52.342C24.377 170.655 0 148.804 0 112.978c0-17.786 6.348-32.523 19.045-43.45 12.442-10.67 26.916-16.006 43.422-16.006zm-10.411 14.99c-10.92 0-18.283 9.402-18.283 23.376 0 28.966 22.346 60.981 42.406 60.981 12.189 0 20.06-8.639 20.06-21.851 0-27.95-24.377-62.505-44.183-62.505zm204.16 6.607l-10.92 23.376c-1.777 3.303-3.3 4.827-5.84 4.827-3.3 0-3.555-.762-7.11-11.688-5.078-15.499-13.966-24.138-24.631-24.138-15.744 0-26.155 15.5-26.155 38.875 0 28.204 14.474 46.498 36.312 46.498 11.427 0 21.584-5.336 31.995-17.024 3.555-4.065 5.587-5.336 7.872-5.336 3.301 0 5.333 2.287 5.333 5.844 0 4.32-4.063 10.672-11.173 17.278-12.443 11.434-27.17 17.024-44.184 17.024-16.505 0-32.757-5.082-44.946-13.975-13.204-9.4-20.314-24.392-20.314-42.178 0-35.318 28.694-60.98 68.307-60.98 15.744 0 30.726 3.81 42.66 10.925 3.048 1.779 4.317 3.303 4.317 5.59 0 1.27-.508 3.05-1.523 5.082zm62.467 11.18v23.121c.253 27.696.253 27.696 1.27 31.507 1.777 5.59 5.078 8.385 10.664 8.385 4.571 0 9.142-1.779 14.474-5.082 4.063-2.795 5.333-3.303 7.618-3.303 4.063 0 7.11 2.795 7.11 6.86 0 10.418-22.346 22.106-42.152 22.106-19.045 0-35.55-10.418-35.55-22.106 0-2.286.253-5.59.761-9.147 1.524-10.163 2.032-18.548 2.032-29.728 0-18.548-.762-29.474-2.286-31.506-.761-1.27-2.031-1.27-13.204-1.27-4.063 0-5.84-1.78-5.84-5.59 0-4.066.507-4.574 10.41-13.975l6.095-6.098 14.728-17.532c4.063-5.336 8.126-10.672 11.173-14.23 2.54-3.81 4.063-4.827 6.602-4.827 3.81 0 5.079 2.033 5.079 7.877v25.154c0 9.401 0 9.401 9.903 9.656h19.553c9.395 0 9.903.254 9.903 3.81 0 2.288-.762 6.353-2.285 10.418-1.27 4.32-2.032 4.828-5.079 4.828l-21.838-.254c-5.333 0-7.11.254-8.126.762-.762.508-.762.508-1.015 10.164zm150.834 9.909l11.935 39.13c3.047 9.654 8.887 16.26 14.22 16.26 2.031 0 3.809-1.016 5.84-3.048 2.794 2.794 3.81 5.081 3.81 8.13 0 8.64-9.396 14.23-23.616 14.23-13.712 0-21.33-3.812-28.694-14.738-15.998 10.418-29.964 14.737-46.724 14.737-24.123 0-41.644-14.229-41.644-33.793 0-22.614 23.87-39.384 56.626-39.384 3.555 0 6.603.255 13.966.763-6.856-19.057-12.95-25.409-24.885-25.409-9.395 0-13.712 1.779-25.139 9.655-1.523 1.27-3.555 1.779-5.078 1.779-3.048 0-5.587-2.795-5.587-5.844 0-11.688 24.631-25.409 45.962-25.409 13.712 0 27.17 5.082 34.28 12.705 4.825 5.081 10.665 17.278 14.728 30.236zm-43.676 16.261c-14.22 0-24.123 7.623-24.123 18.549 0 11.942 10.157 20.835 23.87 20.835 11.172 0 20.314-5.59 20.06-12.196-.254-3.812-2.794-12.45-5.587-19.31-2.54-5.845-6.348-7.878-14.22-7.878zm134.075 19.31l16.76-45.735c1.27-3.81 2.031-7.114 2.031-9.909 0-3.303 0-3.303-6.094-6.606-2.286-1.27-3.555-3.05-3.555-5.844 0-4.828 3.047-6.86 10.41-6.86h31.488c7.11 0 10.665 2.54 10.665 7.876 0 4.066-1.27 5.336-8.125 8.64-6.857 3.302-8.38 5.59-12.697 18.04l-28.44 70.89c-2.286 6.351-2.793 6.605-9.142 6.605h-16.505c-4.063 0-5.079-.254-6.094-1.016-.762-.762-.762-.762-4.571-8.385l-31.995-73.43c-4.063-8.385-5.587-9.91-14.728-14.992-2.54-1.524-4.063-4.065-4.063-6.86 0-4.573 3.555-7.368 9.395-7.368h45.2c7.11 0 9.65 2.032 9.65 7.114 0 4.32-1.017 5.59-6.603 8.639-2.54 1.27-4.063 3.049-4.063 5.082 0 1.778.762 5.081 2.031 8.13l19.045 45.99zm158.707-29.219l-54.595 24.392c6.348 14.737 18.283 22.868 33.518 22.868 11.173 0 23.616-5.336 32.25-13.975 4.063-4.065 5.586-5.081 7.618-5.081 3.3 0 5.586 2.54 5.586 6.098 0 4.573-4.825 11.18-11.935 16.515-13.966 10.926-33.265 17.278-51.548 17.278-35.804 0-60.943-23.63-60.943-57.677 0-32.523 27.425-58.948 61.197-58.948 17.268 0 33.011 7.368 43.93 20.327 5.333 6.352 10.665 16.007 10.665 19.31 0 1.27-1.015 1.779-5.078 3.811l-4.571 2.287c-3.301 1.525-5.333 2.541-6.094 2.795zm-54.595 9.655l23.361-10.417c5.333-2.541 7.11-4.066 7.11-5.844 0-3.05-3.3-10.418-7.11-15.5-4.317-6.097-11.173-9.909-17.52-9.909-10.92 0-17.776 8.385-17.776 21.343 0 10.926 3.555 21.852 7.364 21.852 1.016 0 2.285-.508 4.57-1.525z" id="a"/></defs><g transform="translate(0 -13)" fill="none" fill-rule="evenodd"><mask id="b" fill="#fff"><use xlink:href="#a"/></mask><use fill="#26391F" xlink:href="#a"/><g mask="url(#b)" fill="#232323"><path d="M0 0h743v188H0z"/></g></g></svg>