<?xml version="1.0" encoding="UTF-8"?>
<svg width="506px" height="108px" viewBox="0 0 506 108" version="1.1" xmlns="http://www.w3.org/2000/svg" xmlns:xlink="http://www.w3.org/1999/xlink">
    <!-- Generator: Sketch 50.2 (55047) - http://www.bohemiancoding.com/sketch -->
    <title>Branding/Logomark</title>
    <desc>Created with Sketch.</desc>
    <defs>
        <path d="M42.5413534,36.4401914 C69,36.4401914 90.443609,56.1615609 90.443609,80.5537811 C90.443609,101.486112 71.2481203,116.190642 43.7518797,116.190642 C16.6015038,116.190642 0,101.313118 0,76.9208973 C0,64.8112844 4.32330827,54.7776052 12.9699248,47.338843 C21.443609,40.0730753 31.3007519,36.4401914 42.5413534,36.4401914 Z M35.4511278,46.6468651 C28.0150376,46.6468651 23,53.0476605 23,62.5623563 C23,82.2837258 38.2180451,104.081029 51.8796992,104.081029 C60.1804511,104.081029 65.5413534,98.1992171 65.5413534,89.2035046 C65.5413534,70.174113 48.9398496,46.6468651 35.4511278,46.6468651 Z M174.488722,51.1447213 L167.052632,67.0602125 C165.842105,69.3091406 164.804511,70.3471074 163.075188,70.3471074 C160.827068,70.3471074 160.654135,69.828124 158.233083,62.3893618 C154.774436,51.8366992 148.721805,45.9548872 141.458647,45.9548872 C130.736842,45.9548872 123.646617,56.5075499 123.646617,72.4230411 C123.646617,91.6254272 133.503759,104.081029 148.37594,104.081029 C156.157895,104.081029 163.075188,100.448145 170.165414,92.4903996 C172.586466,89.722488 173.969925,88.8575157 175.526316,88.8575157 C177.774436,88.8575157 179.157895,90.4144659 179.157895,92.8363885 C179.157895,95.7772945 176.390977,100.102156 171.548872,104.600012 C163.075188,112.384764 153.045113,116.190642 141.458647,116.190642 C130.218045,116.190642 119.150376,112.730753 110.849624,106.675946 C101.857143,100.275151 97.0150376,90.068477 97.0150376,77.9588641 C97.0150376,53.9126328 116.556391,36.4401914 143.533835,36.4401914 C154.255639,36.4401914 164.458647,39.0351084 172.586466,43.8789536 C174.661654,45.0899149 175.526316,46.1278817 175.526316,47.6848319 C175.526316,48.5498043 175.180451,49.7607656 174.488722,51.1447213 Z M217.030075,58.756478 L217.030075,74.4989747 C217.203008,93.3553719 217.203008,93.3553719 217.894737,95.9502889 C219.105263,99.7561673 221.353383,101.659106 225.157895,101.659106 C228.270677,101.659106 231.383459,100.448145 235.015038,98.1992171 C237.781955,96.2962779 238.646617,95.9502889 240.203008,95.9502889 C242.969925,95.9502889 245.045113,97.8532281 245.045113,100.62114 C245.045113,107.713913 229.827068,115.671658 216.338346,115.671658 C203.368421,115.671658 192.12782,108.578885 192.12782,100.62114 C192.12782,99.0641894 192.300752,96.8152613 192.646617,94.3933387 C193.684211,87.4735599 194.030075,81.7647424 194.030075,74.1529858 C194.030075,61.5243895 193.511278,54.0856273 192.473684,52.7016715 C191.954887,51.8366992 191.090226,51.8366992 183.481203,51.8366992 C180.714286,51.8366992 179.503759,50.6257379 179.503759,48.0308209 C179.503759,45.2629093 179.849624,44.9169204 186.593985,38.516125 L190.744361,34.3642578 L200.774436,22.4276393 C203.541353,18.7947555 206.308271,15.1618716 208.383459,12.739949 C210.112782,10.145032 211.150376,9.45305412 212.879699,9.45305412 C215.473684,9.45305412 216.338346,10.8370099 216.338346,14.8158827 L216.338346,31.9423352 C216.338346,38.3431306 216.338346,38.3431306 223.082707,38.516125 L236.398496,38.516125 C242.796992,38.516125 243.142857,38.6891195 243.142857,41.1110421 C243.142857,42.6679923 242.62406,45.4359038 241.586466,48.2038153 C240.721805,51.1447213 240.203008,51.4907102 238.12782,51.4907102 L223.255639,51.3177158 C219.62406,51.3177158 218.413534,51.4907102 217.721805,51.8366992 C217.203008,52.1826881 217.203008,52.1826881 217.030075,58.756478 Z M319.75188,65.5032623 L327.879699,92.1444106 C329.954887,98.7182005 333.932331,103.216057 337.56391,103.216057 C338.947368,103.216057 340.157895,102.524079 341.541353,101.140123 C343.443609,103.043062 344.135338,104.600012 344.135338,106.675946 C344.135338,112.557758 337.736842,116.363636 328.052632,116.363636 C318.714286,116.363636 313.526316,113.768719 308.511278,106.329957 C297.616541,113.42273 288.105263,116.363636 276.691729,116.363636 C260.263158,116.363636 248.330827,106.675946 248.330827,93.3553719 C248.330827,77.9588641 264.586466,66.5412291 286.894737,66.5412291 C289.315789,66.5412291 291.390977,66.7142236 296.406015,67.0602125 C291.736842,54.0856273 287.586466,49.7607656 279.458647,49.7607656 C273.06015,49.7607656 270.120301,50.9717268 262.338346,56.3345554 C261.300752,57.1995277 259.917293,57.5455167 258.879699,57.5455167 C256.804511,57.5455167 255.075188,55.6425775 255.075188,53.5666439 C255.075188,45.6088983 271.849624,36.2671969 286.37594,36.2671969 C295.714286,36.2671969 304.879699,39.7270863 309.721805,44.9169204 C313.007519,48.3768098 316.984962,56.6805443 319.75188,65.5032623 Z M290.007519,76.5749083 C280.323308,76.5749083 273.578947,81.7647424 273.578947,89.2035046 C273.578947,97.3342447 280.496241,103.389051 289.834586,103.389051 C297.443609,103.389051 303.669173,99.5831728 303.496241,95.0853166 C303.323308,92.4903996 301.593985,86.6085876 299.691729,81.9377369 C297.962406,77.9588641 295.368421,76.5749083 290.007519,76.5749083 Z M381.315789,89.722488 L392.729323,58.5834835 C393.593985,55.9885665 394.112782,53.7396384 394.112782,51.8366992 C394.112782,49.5877711 394.112782,49.5877711 389.962406,47.338843 C388.406015,46.4738706 387.541353,45.2629093 387.541353,43.3599702 C387.541353,40.0730753 389.616541,38.6891195 394.631579,38.6891195 L416.075188,38.6891195 C420.917293,38.6891195 423.338346,40.4190642 423.338346,44.0519481 C423.338346,46.8198596 422.473684,47.6848319 417.804511,49.93376 C413.135338,52.1826881 412.097744,53.7396384 409.157895,62.2163674 L389.789474,110.481824 C388.233083,114.806686 387.887218,114.979681 383.56391,114.979681 L372.323308,114.979681 C369.556391,114.979681 368.864662,114.806686 368.172932,114.287703 C367.654135,113.768719 367.654135,113.768719 365.06015,108.578885 L343.270677,58.5834835 C340.503759,52.874666 339.466165,51.8366992 333.240602,48.3768098 C331.511278,47.338843 330.473684,45.6088983 330.473684,43.7059591 C330.473684,40.5920587 332.894737,38.6891195 336.87218,38.6891195 L367.654135,38.6891195 C372.496241,38.6891195 374.225564,40.0730753 374.225564,43.5329646 C374.225564,46.4738706 373.533835,47.338843 369.729323,49.4147766 C368,50.279749 366.962406,51.4907102 366.962406,52.874666 C366.962406,54.0856273 367.481203,56.3345554 368.345865,58.410489 L381.315789,89.722488 Z M489.398496,69.828124 L452.218045,86.4355931 C456.541353,96.4692724 464.669173,102.005095 475.045113,102.005095 C482.654135,102.005095 491.12782,98.3722115 497.007519,92.4903996 C499.774436,89.722488 500.81203,89.0305102 502.195489,89.0305102 C504.443609,89.0305102 506,90.7604549 506,93.1823774 C506,96.2962779 502.714286,100.794134 497.87218,104.427018 C488.360902,111.86578 475.218045,116.190642 462.766917,116.190642 C438.383459,116.190642 421.263158,100.102156 421.263158,76.9208973 C421.263158,54.7776052 439.93985,36.7861803 462.93985,36.7861803 C474.699248,36.7861803 485.421053,41.8030199 492.857143,50.6257379 C496.488722,54.9505996 500.120301,61.5243895 500.120301,63.7733176 C500.120301,64.6382899 499.428571,64.9842789 496.661654,66.3682346 L493.548872,67.9251849 C491.300752,68.9631517 489.917293,69.6551296 489.398496,69.828124 Z M452.218045,76.4019139 L468.12782,69.3091406 C471.759398,67.5791959 472.969925,66.5412291 472.969925,65.3302678 C472.969925,63.2543342 470.721805,58.2374946 468.12782,54.7776052 C465.18797,50.6257379 460.518797,48.0308209 456.195489,48.0308209 C448.759398,48.0308209 444.090226,53.7396384 444.090226,62.5623563 C444.090226,70.0011185 446.511278,77.4398807 449.105263,77.4398807 C449.796992,77.4398807 450.661654,77.0938918 452.218045,76.4019139 Z" id="path-1"></path>
    </defs>
    <g id="🚀-Launch-Signup-Page" stroke="none" stroke-width="1" fill="none" fill-rule="evenodd">
        <g id="Launch-Signup-Page" transform="translate(-467.000000, -84.000000)">
            <g id="Branding/Logo" transform="translate(467.000000, 75.000000)">
                <mask id="mask-2" fill="white">
                    <use xlink:href="#path-1"></use>
                </mask>
                <use id="octave" fill="#26391F" fill-rule="evenodd" xlink:href="#path-1"></use>
                <g id="Mixin/Fill/Black" mask="url(#mask-2)" fill="#232323" fill-rule="evenodd">
                    <rect id="Rectangle" x="0" y="0" width="506" height="128"></rect>
                </g>
            </g>
        </g>
    </g>
</svg>